<svg width="298" height="41" viewBox="0 0 298 41" fill="none" xmlns="http://www.w3.org/2000/svg">
<rect y="0.689941" width="40" height="40" rx="8" fill="#C9991D"/>
<rect x="6.44051" y="24.3496" width="25.0021" height="2.99813" transform="rotate(-45 6.44051 24.3496)" fill="white"/>
<rect x="14.2205" y="32.1294" width="25.0021" height="2.99813" transform="rotate(-45 14.2205 32.1294)" fill="white"/>
<path d="M60.7305 29.8447H57.1562V12.7119H66.9766V15.6885H60.7305V20.1064H66.543V23.0713H60.7305V29.8447ZM75.4141 16.4736C77.1719 16.4736 78.5195 16.8564 79.457 17.6221C80.3945 18.3877 80.8633 19.5518 80.8633 21.1143V29.8447H78.3672L77.6758 28.0635H77.582C77.207 28.5322 76.8242 28.915 76.4336 29.2119C76.043 29.5088 75.5938 29.7275 75.0859 29.8682C74.5781 30.0088 73.9609 30.0791 73.2344 30.0791C72.4609 30.0791 71.7656 29.9307 71.1484 29.6338C70.5391 29.3369 70.0586 28.8838 69.707 28.2744C69.3555 27.6572 69.1797 26.876 69.1797 25.9307C69.1797 24.54 69.668 23.5166 70.6445 22.8604C71.6211 22.1963 73.0859 21.8291 75.0391 21.7588L77.3125 21.6885V21.1143C77.3125 20.4268 77.1328 19.9229 76.7734 19.6025C76.4141 19.2822 75.9141 19.1221 75.2734 19.1221C74.6406 19.1221 74.0195 19.2119 73.4102 19.3916C72.8008 19.5713 72.1914 19.7979 71.582 20.0713L70.3984 17.6572C71.0938 17.29 71.8711 17.001 72.7305 16.79C73.5977 16.5791 74.4922 16.4736 75.4141 16.4736ZM77.3125 23.7744L75.9297 23.8213C74.7734 23.8525 73.9688 24.0596 73.5156 24.4424C73.0703 24.8252 72.8477 25.3291 72.8477 25.9541C72.8477 26.501 73.0078 26.8916 73.3281 27.126C73.6484 27.3525 74.0664 27.4658 74.582 27.4658C75.3477 27.4658 75.9922 27.2393 76.5156 26.7861C77.0469 26.333 77.3125 25.6885 77.3125 24.8525V23.7744ZM93.6953 25.9541C93.6953 26.8447 93.4844 27.5986 93.0625 28.2158C92.6484 28.8252 92.0273 29.29 91.1992 29.6104C90.3711 29.9229 89.3398 30.0791 88.1055 30.0791C87.1914 30.0791 86.4062 30.0205 85.75 29.9033C85.1016 29.7861 84.4453 29.5908 83.7812 29.3174V26.3643C84.4922 26.6846 85.2539 26.9502 86.0664 27.1611C86.8867 27.3643 87.6055 27.4658 88.2227 27.4658C88.918 27.4658 89.4141 27.3643 89.7109 27.1611C90.0156 26.9502 90.168 26.6768 90.168 26.3408C90.168 26.1221 90.1055 25.9268 89.9805 25.7549C89.8633 25.5752 89.6055 25.376 89.207 25.1572C88.8086 24.9307 88.1836 24.6377 87.332 24.2783C86.5117 23.9346 85.8359 23.5869 85.3047 23.2354C84.7812 22.8838 84.3906 22.4697 84.1328 21.9932C83.8828 21.5088 83.7578 20.8955 83.7578 20.1533C83.7578 18.9424 84.2266 18.0322 85.1641 17.4229C86.1094 16.8057 87.3711 16.4971 88.9492 16.4971C89.7617 16.4971 90.5352 16.5791 91.2695 16.7432C92.0117 16.9072 92.7734 17.1689 93.5547 17.5283L92.4766 20.1064C91.8281 19.8252 91.2148 19.5947 90.6367 19.415C90.0664 19.2354 89.4844 19.1455 88.8906 19.1455C88.3672 19.1455 87.9727 19.2158 87.707 19.3564C87.4414 19.4971 87.3086 19.7119 87.3086 20.001C87.3086 20.2119 87.375 20.3994 87.5078 20.5635C87.6484 20.7275 87.9141 20.9111 88.3047 21.1143C88.7031 21.3096 89.2852 21.5635 90.0508 21.876C90.793 22.1807 91.4375 22.501 91.9844 22.8369C92.5312 23.165 92.9531 23.5752 93.25 24.0674C93.5469 24.5518 93.6953 25.1807 93.6953 25.9541ZM102.004 27.2314C102.395 27.2314 102.773 27.1924 103.141 27.1143C103.516 27.0361 103.887 26.9385 104.254 26.8213V29.4814C103.871 29.6533 103.395 29.7939 102.824 29.9033C102.262 30.0205 101.645 30.0791 100.973 30.0791C100.191 30.0791 99.4883 29.9541 98.8633 29.7041C98.2461 29.4463 97.7578 29.0049 97.3984 28.3799C97.0469 27.7471 96.8711 26.8682 96.8711 25.7432V19.4268H95.1602V17.915L97.1289 16.7197L98.1602 13.9541H100.445V16.7432H104.113V19.4268H100.445V25.7432C100.445 26.2432 100.586 26.6182 100.867 26.8682C101.156 27.1104 101.535 27.2314 102.004 27.2314ZM113.805 29.8447H110.172V15.7354H105.52V12.7119H118.457V15.7354H113.805V29.8447ZM128.125 16.4971C128.305 16.4971 128.512 16.5088 128.746 16.5322C128.988 16.5479 129.184 16.5713 129.332 16.6025L129.062 19.9541C128.945 19.915 128.777 19.8877 128.559 19.8721C128.348 19.8486 128.164 19.8369 128.008 19.8369C127.547 19.8369 127.098 19.8955 126.66 20.0127C126.23 20.1299 125.844 20.3213 125.5 20.5869C125.156 20.8447 124.883 21.1885 124.68 21.6182C124.484 22.04 124.387 22.5596 124.387 23.1768V29.8447H120.812V16.7432H123.52L124.047 18.9463H124.223C124.48 18.501 124.801 18.0947 125.184 17.7275C125.574 17.3525 126.016 17.0557 126.508 16.8369C127.008 16.6104 127.547 16.4971 128.125 16.4971ZM137.078 16.4736C138.836 16.4736 140.184 16.8564 141.121 17.6221C142.059 18.3877 142.527 19.5518 142.527 21.1143V29.8447H140.031L139.34 28.0635H139.246C138.871 28.5322 138.488 28.915 138.098 29.2119C137.707 29.5088 137.258 29.7275 136.75 29.8682C136.242 30.0088 135.625 30.0791 134.898 30.0791C134.125 30.0791 133.43 29.9307 132.812 29.6338C132.203 29.3369 131.723 28.8838 131.371 28.2744C131.02 27.6572 130.844 26.876 130.844 25.9307C130.844 24.54 131.332 23.5166 132.309 22.8604C133.285 22.1963 134.75 21.8291 136.703 21.7588L138.977 21.6885V21.1143C138.977 20.4268 138.797 19.9229 138.438 19.6025C138.078 19.2822 137.578 19.1221 136.938 19.1221C136.305 19.1221 135.684 19.2119 135.074 19.3916C134.465 19.5713 133.855 19.7979 133.246 20.0713L132.062 17.6572C132.758 17.29 133.535 17.001 134.395 16.79C135.262 16.5791 136.156 16.4736 137.078 16.4736ZM138.977 23.7744L137.594 23.8213C136.438 23.8525 135.633 24.0596 135.18 24.4424C134.734 24.8252 134.512 25.3291 134.512 25.9541C134.512 26.501 134.672 26.8916 134.992 27.126C135.312 27.3525 135.73 27.4658 136.246 27.4658C137.012 27.4658 137.656 27.2393 138.18 26.7861C138.711 26.333 138.977 25.6885 138.977 24.8525V23.7744ZM151.539 30.0791C150.242 30.0791 149.137 29.8447 148.223 29.376C147.309 28.8994 146.613 28.165 146.137 27.1729C145.66 26.1807 145.422 24.9111 145.422 23.3643C145.422 21.7627 145.691 20.458 146.23 19.4502C146.777 18.4346 147.531 17.6885 148.492 17.2119C149.461 16.7354 150.582 16.4971 151.855 16.4971C152.762 16.4971 153.543 16.5869 154.199 16.7666C154.863 16.9385 155.441 17.1455 155.934 17.3877L154.879 20.1533C154.316 19.9268 153.793 19.7432 153.309 19.6025C152.824 19.4541 152.34 19.3799 151.855 19.3799C151.23 19.3799 150.711 19.5283 150.297 19.8252C149.883 20.1143 149.574 20.5518 149.371 21.1377C149.168 21.7236 149.066 22.458 149.066 23.3408C149.066 24.208 149.176 24.9268 149.395 25.4971C149.613 26.0674 149.93 26.4932 150.344 26.7744C150.758 27.0479 151.262 27.1846 151.855 27.1846C152.598 27.1846 153.258 27.0869 153.836 26.8916C154.414 26.6885 154.977 26.4072 155.523 26.0479V29.1064C154.977 29.4502 154.402 29.6963 153.801 29.8447C153.207 30.001 152.453 30.0791 151.539 30.0791ZM162.145 11.6104V19.7666C162.145 20.2588 162.125 20.751 162.086 21.2432C162.047 21.7354 162.004 22.2275 161.957 22.7197H162.004C162.246 22.376 162.492 22.0361 162.742 21.7002C163 21.3643 163.273 21.04 163.562 20.7275L167.23 16.7432H171.262L166.059 22.4268L171.578 29.8447H167.453L163.68 24.5361L162.145 25.7666V29.8447H158.57V11.6104H162.145ZM179.969 29.8447V12.7119H183.602V26.8447H190.551V29.8447H179.969ZM196.832 16.7432V29.8447H193.258V16.7432H196.832ZM195.051 11.6104C195.582 11.6104 196.039 11.7354 196.422 11.9854C196.805 12.2275 196.996 12.6846 196.996 13.3564C196.996 14.0205 196.805 14.4814 196.422 14.7393C196.039 14.9893 195.582 15.1143 195.051 15.1143C194.512 15.1143 194.051 14.9893 193.668 14.7393C193.293 14.4814 193.105 14.0205 193.105 13.3564C193.105 12.6846 193.293 12.2275 193.668 11.9854C194.051 11.7354 194.512 11.6104 195.051 11.6104ZM205.914 30.0791C204.617 30.0791 203.512 29.8447 202.598 29.376C201.684 28.8994 200.988 28.165 200.512 27.1729C200.035 26.1807 199.797 24.9111 199.797 23.3643C199.797 21.7627 200.066 20.458 200.605 19.4502C201.152 18.4346 201.906 17.6885 202.867 17.2119C203.836 16.7354 204.957 16.4971 206.23 16.4971C207.137 16.4971 207.918 16.5869 208.574 16.7666C209.238 16.9385 209.816 17.1455 210.309 17.3877L209.254 20.1533C208.691 19.9268 208.168 19.7432 207.684 19.6025C207.199 19.4541 206.715 19.3799 206.23 19.3799C205.605 19.3799 205.086 19.5283 204.672 19.8252C204.258 20.1143 203.949 20.5518 203.746 21.1377C203.543 21.7236 203.441 22.458 203.441 23.3408C203.441 24.208 203.551 24.9268 203.77 25.4971C203.988 26.0674 204.305 26.4932 204.719 26.7744C205.133 27.0479 205.637 27.1846 206.23 27.1846C206.973 27.1846 207.633 27.0869 208.211 26.8916C208.789 26.6885 209.352 26.4072 209.898 26.0479V29.1064C209.352 29.4502 208.777 29.6963 208.176 29.8447C207.582 30.001 206.828 30.0791 205.914 30.0791ZM218.348 16.4971C219.559 16.4971 220.602 16.7314 221.477 17.2002C222.352 17.6611 223.027 18.333 223.504 19.2158C223.98 20.0986 224.219 21.1768 224.219 22.4502V24.1846H215.77C215.809 25.1924 216.109 25.9854 216.672 26.5635C217.242 27.1338 218.031 27.4189 219.039 27.4189C219.875 27.4189 220.641 27.333 221.336 27.1611C222.031 26.9893 222.746 26.7314 223.48 26.3877V29.1533C222.832 29.4736 222.152 29.708 221.441 29.8564C220.738 30.0049 219.883 30.0791 218.875 30.0791C217.562 30.0791 216.398 29.8369 215.383 29.3525C214.375 28.8682 213.582 28.1299 213.004 27.1377C212.434 26.1455 212.148 24.8955 212.148 23.3877C212.148 21.8564 212.406 20.583 212.922 19.5674C213.445 18.5439 214.172 17.7783 215.102 17.2705C216.031 16.7549 217.113 16.4971 218.348 16.4971ZM218.371 19.04C217.676 19.04 217.098 19.2627 216.637 19.708C216.184 20.1533 215.922 20.8525 215.852 21.8057H220.867C220.859 21.2744 220.762 20.8018 220.574 20.3877C220.395 19.9736 220.121 19.6455 219.754 19.4033C219.395 19.1611 218.934 19.04 218.371 19.04ZM234.566 16.4971C235.965 16.4971 237.09 16.8799 237.941 17.6455C238.793 18.4033 239.219 19.6221 239.219 21.3018V29.8447H235.645V22.1924C235.645 21.2549 235.473 20.5479 235.129 20.0713C234.793 19.5947 234.262 19.3564 233.535 19.3564C232.441 19.3564 231.695 19.7275 231.297 20.4697C230.898 21.2119 230.699 22.2822 230.699 23.6807V29.8447H227.125V16.7432H229.855L230.336 18.4189H230.535C230.816 17.9658 231.164 17.5986 231.578 17.3174C232 17.0361 232.465 16.8291 232.973 16.6963C233.488 16.5635 234.02 16.4971 234.566 16.4971ZM252.039 25.9541C252.039 26.8447 251.828 27.5986 251.406 28.2158C250.992 28.8252 250.371 29.29 249.543 29.6104C248.715 29.9229 247.684 30.0791 246.449 30.0791C245.535 30.0791 244.75 30.0205 244.094 29.9033C243.445 29.7861 242.789 29.5908 242.125 29.3174V26.3643C242.836 26.6846 243.598 26.9502 244.41 27.1611C245.23 27.3643 245.949 27.4658 246.566 27.4658C247.262 27.4658 247.758 27.3643 248.055 27.1611C248.359 26.9502 248.512 26.6768 248.512 26.3408C248.512 26.1221 248.449 25.9268 248.324 25.7549C248.207 25.5752 247.949 25.376 247.551 25.1572C247.152 24.9307 246.527 24.6377 245.676 24.2783C244.855 23.9346 244.18 23.5869 243.648 23.2354C243.125 22.8838 242.734 22.4697 242.477 21.9932C242.227 21.5088 242.102 20.8955 242.102 20.1533C242.102 18.9424 242.57 18.0322 243.508 17.4229C244.453 16.8057 245.715 16.4971 247.293 16.4971C248.105 16.4971 248.879 16.5791 249.613 16.7432C250.355 16.9072 251.117 17.1689 251.898 17.5283L250.82 20.1064C250.172 19.8252 249.559 19.5947 248.98 19.415C248.41 19.2354 247.828 19.1455 247.234 19.1455C246.711 19.1455 246.316 19.2158 246.051 19.3564C245.785 19.4971 245.652 19.7119 245.652 20.001C245.652 20.2119 245.719 20.3994 245.852 20.5635C245.992 20.7275 246.258 20.9111 246.648 21.1143C247.047 21.3096 247.629 21.5635 248.395 21.876C249.137 22.1807 249.781 22.501 250.328 22.8369C250.875 23.165 251.297 23.5752 251.594 24.0674C251.891 24.5518 252.039 25.1807 252.039 25.9541ZM258.402 16.7432V29.8447H254.828V16.7432H258.402ZM256.621 11.6104C257.152 11.6104 257.609 11.7354 257.992 11.9854C258.375 12.2275 258.566 12.6846 258.566 13.3564C258.566 14.0205 258.375 14.4814 257.992 14.7393C257.609 14.9893 257.152 15.1143 256.621 15.1143C256.082 15.1143 255.621 14.9893 255.238 14.7393C254.863 14.4814 254.676 14.0205 254.676 13.3564C254.676 12.6846 254.863 12.2275 255.238 11.9854C255.621 11.7354 256.082 11.6104 256.621 11.6104ZM269.605 16.4971C271.004 16.4971 272.129 16.8799 272.98 17.6455C273.832 18.4033 274.258 19.6221 274.258 21.3018V29.8447H270.684V22.1924C270.684 21.2549 270.512 20.5479 270.168 20.0713C269.832 19.5947 269.301 19.3564 268.574 19.3564C267.48 19.3564 266.734 19.7275 266.336 20.4697C265.938 21.2119 265.738 22.2822 265.738 23.6807V29.8447H262.164V16.7432H264.895L265.375 18.4189H265.574C265.855 17.9658 266.203 17.5986 266.617 17.3174C267.039 17.0361 267.504 16.8291 268.012 16.6963C268.527 16.5635 269.059 16.4971 269.605 16.4971ZM281.77 35.6104C279.941 35.6104 278.543 35.29 277.574 34.6494C276.613 34.0166 276.133 33.126 276.133 31.9775C276.133 31.1885 276.379 30.5283 276.871 29.9971C277.363 29.4658 278.086 29.0869 279.039 28.8604C278.672 28.7041 278.352 28.4502 278.078 28.0986C277.805 27.7393 277.668 27.3604 277.668 26.9619C277.668 26.4619 277.812 26.0479 278.102 25.7197C278.391 25.3838 278.809 25.0557 279.355 24.7354C278.668 24.4385 278.121 23.9619 277.715 23.3057C277.316 22.6494 277.117 21.876 277.117 20.9854C277.117 20.0322 277.324 19.2236 277.738 18.5596C278.16 17.8877 278.77 17.376 279.566 17.0244C280.371 16.6729 281.348 16.4971 282.496 16.4971C282.738 16.4971 283.02 16.5127 283.34 16.5439C283.66 16.5752 283.953 16.6104 284.219 16.6494C284.492 16.6885 284.676 16.7197 284.77 16.7432H289.34V18.5596L287.289 19.0869C287.477 19.376 287.617 19.6846 287.711 20.0127C287.805 20.3408 287.852 20.6885 287.852 21.0557C287.852 22.4619 287.359 23.5596 286.375 24.3486C285.398 25.1299 284.039 25.5205 282.297 25.5205C281.883 25.4971 281.492 25.4658 281.125 25.4268C280.945 25.5674 280.809 25.7158 280.715 25.8721C280.621 26.0283 280.574 26.1924 280.574 26.3643C280.574 26.5361 280.645 26.6807 280.785 26.7979C280.934 26.9072 281.152 26.9932 281.441 27.0557C281.738 27.1104 282.105 27.1377 282.543 27.1377H284.77C286.207 27.1377 287.301 27.4463 288.051 28.0635C288.809 28.6807 289.188 29.5869 289.188 30.7822C289.188 32.3135 288.547 33.501 287.266 34.3447C285.992 35.1885 284.16 35.6104 281.77 35.6104ZM281.922 33.2783C282.773 33.2783 283.504 33.1963 284.113 33.0322C284.73 32.876 285.203 32.6494 285.531 32.3525C285.859 32.0635 286.023 31.7158 286.023 31.3096C286.023 30.9814 285.926 30.7197 285.73 30.5244C285.543 30.3369 285.254 30.2041 284.863 30.126C284.48 30.0479 283.988 30.0088 283.387 30.0088H281.535C281.098 30.0088 280.703 30.0791 280.352 30.2197C280.008 30.3604 279.734 30.5557 279.531 30.8057C279.328 31.0635 279.227 31.3604 279.227 31.6963C279.227 32.1885 279.461 32.5752 279.93 32.8564C280.406 33.1377 281.07 33.2783 281.922 33.2783ZM282.496 23.3408C283.168 23.3408 283.66 23.1338 283.973 22.7197C284.285 22.3057 284.441 21.7432 284.441 21.0322C284.441 20.2432 284.277 19.6533 283.949 19.2627C283.629 18.8643 283.145 18.665 282.496 18.665C281.84 18.665 281.348 18.8643 281.02 19.2627C280.691 19.6533 280.527 20.2432 280.527 21.0322C280.527 21.7432 280.688 22.3057 281.008 22.7197C281.336 23.1338 281.832 23.3408 282.496 23.3408Z" fill="white"/>
</svg>
