<svg width="27" height="30" viewBox="0 0 27 30" fill="none" xmlns="http://www.w3.org/2000/svg">
<path d="M3.33333 30C2.39333 30 1.60278 29.6794 0.961667 29.0383C0.320556 28.3972 0 27.6067 0 26.6667V22.05H5V0H26.6667V26.6667C26.6667 27.6067 26.3461 28.3972 25.705 29.0383C25.0639 29.6794 24.2733 30 23.3333 30H3.33333ZM23.3333 28.3333C23.8056 28.3333 24.2017 28.1733 24.5217 27.8533C24.8417 27.5333 25.0011 27.1378 25 26.6667V1.66667H6.66667V22.05H21.6667V26.6667C21.6667 27.1389 21.8267 27.535 22.1467 27.855C22.4667 28.175 22.8622 28.3344 23.3333 28.3333ZM8.975 8.975V7.30833H22.6917V8.975H8.975ZM8.975 13.59V11.9233H22.6917V13.59H8.975Z" fill="#1F2937"/>
</svg>
