<svg width="30" height="30" viewBox="0 0 30 30" fill="none" xmlns="http://www.w3.org/2000/svg">
<path d="M13.6364 23.1818H16.3636V27.2727H13.6364V23.1818ZM20.4545 27.2727V30H9.54545V27.2727H20.4545ZM25.9091 23.1818H4.09091C3.00626 23.1807 1.96636 22.7494 1.1994 21.9824C0.432436 21.2155 0.00108302 20.1756 0 19.0909V4.09091C0.00108302 3.00626 0.432436 1.96636 1.1994 1.1994C1.96636 0.432436 3.00626 0.00108302 4.09091 0H25.9091C26.9937 0.00108302 28.0336 0.432436 28.8006 1.1994C29.5676 1.96636 29.9989 3.00626 30 4.09091V19.0909C29.9989 20.1756 29.5676 21.2155 28.8006 21.9824C28.0336 22.7494 26.9937 23.1807 25.9091 23.1818ZM4.09091 2.72727C3.72925 2.72727 3.3824 2.87094 3.12667 3.12667C2.87094 3.3824 2.72727 3.72925 2.72727 4.09091V19.0909C2.72727 19.4526 2.87094 19.7994 3.12667 20.0551C3.3824 20.3109 3.72925 20.4545 4.09091 20.4545H25.9091C26.2708 20.4545 26.6176 20.3109 26.8733 20.0551C27.1291 19.7994 27.2727 19.4526 27.2727 19.0909V4.09091C27.2727 3.72925 27.1291 3.3824 26.8733 3.12667C26.6176 2.87094 26.2708 2.72727 25.9091 2.72727H4.09091Z" fill="#1F2937"/>
<path d="M20.4541 19.0912L17.8441 10.3912L16.3632 16.3639L14.5782 12.273H14.1268L12.2723 17.7276L10.6946 12.1816L9.96637 13.6366H5.4541V12.273H9.12365L10.9086 8.1821L12.365 13.2453L13.145 10.9094H15.4209L16.085 12.2362L17.7268 4.09119L20.4541 15.0003L21.3268 12.273H24.545V13.6366H22.3086L20.4541 19.0912Z" fill="#1F2937"/>
</svg>
