<svg width="30" height="30" viewBox="0 0 30 30" fill="none" xmlns="http://www.w3.org/2000/svg">
<path d="M15 30C12.925 30 10.975 29.606 9.15 28.818C7.325 28.03 5.7375 26.9615 4.3875 25.6125C3.0375 24.2635 1.969 22.676 1.182 20.85C0.395002 19.024 0.0010019 17.074 1.89873e-06 15C-0.000998101 12.926 0.393002 10.976 1.182 9.15C1.971 7.324 3.0395 5.7365 4.3875 4.3875C5.7355 3.0385 7.323 1.97 9.15 1.182C10.977 0.394 12.927 0 15 0C17.073 0 19.023 0.394 20.85 1.182C22.677 1.97 24.2645 3.0385 25.6125 4.3875C26.9605 5.7365 28.0295 7.324 28.8195 9.15C29.6095 10.976 30.003 12.926 30 15C29.997 17.074 29.603 19.024 28.818 20.85C28.033 22.676 26.9645 24.2635 25.6125 25.6125C24.2605 26.9615 22.673 28.0305 20.85 28.8195C19.027 29.6085 17.077 30.002 15 30ZM10.65 26.175L12.45 22.05C11.4 21.675 10.494 21.094 9.732 20.307C8.97 19.52 8.376 18.601 7.95 17.55L3.825 19.275C4.4 20.875 5.2875 22.275 6.4875 23.475C7.6875 24.675 9.075 25.575 10.65 26.175ZM7.95 12.45C8.375 11.4 8.969 10.4815 9.732 9.6945C10.495 8.9075 11.401 8.326 12.45 7.95L10.725 3.825C9.125 4.425 7.725 5.325 6.525 6.525C5.325 7.725 4.425 9.125 3.825 10.725L7.95 12.45ZM15 19.5C16.25 19.5 17.3125 19.0625 18.1875 18.1875C19.0625 17.3125 19.5 16.25 19.5 15C19.5 13.75 19.0625 12.6875 18.1875 11.8125C17.3125 10.9375 16.25 10.5 15 10.5C13.75 10.5 12.6875 10.9375 11.8125 11.8125C10.9375 12.6875 10.5 13.75 10.5 15C10.5 16.25 10.9375 17.3125 11.8125 18.1875C12.6875 19.0625 13.75 19.5 15 19.5ZM19.35 26.175C20.925 25.575 22.3065 24.6815 23.4945 23.4945C24.6825 22.3075 25.576 20.926 26.175 19.35L22.05 17.55C21.675 18.6 21.1 19.5065 20.325 20.2695C19.55 21.0325 18.65 21.626 17.625 22.05L19.35 26.175ZM22.05 12.375L26.175 10.65C25.575 9.075 24.6815 7.694 23.4945 6.507C22.3075 5.32 20.926 4.426 19.35 3.825L17.625 8.025C18.65 8.4 19.5375 8.969 20.2875 9.732C21.0375 10.495 21.625 11.376 22.05 12.375Z" fill="#1F2937"/>
</svg>
