<svg width="31" height="30" viewBox="0 0 31 30" fill="none" xmlns="http://www.w3.org/2000/svg">
<path d="M8.78049 27.1098V13.9024H11.122C11.2927 13.9024 11.4634 13.921 11.6341 13.958C11.8049 13.9951 11.9756 14.0376 12.1463 14.0854L22.2805 17.8537C22.622 17.9756 22.8966 18.1951 23.1044 18.5122C23.3122 18.8293 23.4156 19.1585 23.4146 19.5C23.4146 20.0122 23.2376 20.4268 22.8834 20.7439C22.5293 21.061 22.121 21.2195 21.6585 21.2195H17.8171C17.6951 21.2195 17.6039 21.2137 17.5434 21.202C17.4829 21.1902 17.4034 21.1595 17.3049 21.1098L14.9634 20.1951L14.4878 21.622L17.3049 22.6098C17.3537 22.6341 17.4268 22.6527 17.5244 22.6654C17.622 22.6781 17.7073 22.6839 17.7805 22.6829H27.8049C28.5854 22.6829 29.2683 22.9634 29.8537 23.5244C30.439 24.0854 30.7317 24.7805 30.7317 25.6098L19.061 30L8.78049 27.1098ZM0 30V13.9024H5.85366V30H0ZM19.7561 9.5122H21.2195V8.04878H19.7561V9.5122ZM16.8293 9.5122H18.2927V8.04878H16.8293V9.5122ZM19.7561 12.439H21.2195V10.9756H19.7561V12.439ZM16.8293 12.439H18.2927V10.9756H16.8293V12.439ZM25.6463 18.2927C25.3049 17.4878 24.8171 16.7805 24.1829 16.1707C23.5488 15.561 22.7683 15.0854 21.8415 14.7439L11.7073 10.9756H8.78049V7.31707L19.0244 0L29.2683 7.31707V18.2927H25.6463Z" fill="#1F2937"/>
</svg>
