<svg width="30" height="30" viewBox="0 0 30 30" fill="none" xmlns="http://www.w3.org/2000/svg">
<path d="M11.25 21.5625C11.25 20.918 11.1279 20.3125 10.8838 19.7461C10.6396 19.1797 10.3027 18.6865 9.87305 18.2666C9.44336 17.8467 8.94531 17.5098 8.37891 17.2559C7.8125 17.002 7.20703 16.875 6.5625 16.875C5.91797 16.875 5.3125 16.9971 4.74609 17.2412C4.17969 17.4854 3.68164 17.8223 3.25195 18.252C2.82227 18.6816 2.48535 19.1797 2.24121 19.7461C1.99707 20.3125 1.875 20.918 1.875 21.5625V22.5H0V21.5625C0 20.9473 0.078125 20.3564 0.234375 19.79C0.390625 19.2236 0.625 18.6865 0.9375 18.1787C1.25 17.6709 1.62109 17.2119 2.05078 16.8018C2.48047 16.3916 2.96875 16.04 3.51562 15.7471C2.98828 15.2979 2.58301 14.7656 2.2998 14.1504C2.0166 13.5352 1.875 12.8809 1.875 12.1875C1.875 11.543 1.99707 10.9375 2.24121 10.3711C2.48535 9.80469 2.81738 9.31152 3.2373 8.8916C3.65723 8.47168 4.15527 8.13477 4.73145 7.88086C5.30762 7.62695 5.91797 7.5 6.5625 7.5C7.20703 7.5 7.8125 7.62207 8.37891 7.86621C8.94531 8.11035 9.43848 8.44727 9.8584 8.87695C10.2783 9.30664 10.6152 9.80469 10.8691 10.3711C11.123 10.9375 11.25 11.543 11.25 12.1875C11.25 12.8711 11.1084 13.5205 10.8252 14.1357C10.542 14.751 10.1367 15.2881 9.60938 15.7471C10.1465 16.0303 10.6299 16.377 11.0596 16.7871C11.4893 17.1973 11.8604 17.6562 12.1729 18.1641C12.4854 18.6719 12.7197 19.209 12.876 19.7754C13.0322 20.3418 13.1152 20.9375 13.125 21.5625V22.5H11.25V21.5625ZM3.75 12.1875C3.75 12.5781 3.82324 12.9443 3.96973 13.2861C4.11621 13.6279 4.31641 13.9258 4.57031 14.1797C4.82422 14.4336 5.12207 14.6338 5.46387 14.7803C5.80566 14.9268 6.17188 15 6.5625 15C6.95312 15 7.31934 14.9268 7.66113 14.7803C8.00293 14.6338 8.30078 14.4336 8.55469 14.1797C8.80859 13.9258 9.00879 13.6279 9.15527 13.2861C9.30176 12.9443 9.375 12.5781 9.375 12.1875C9.375 11.7969 9.30176 11.4307 9.15527 11.0889C9.00879 10.7471 8.80859 10.4492 8.55469 10.1953C8.30078 9.94141 8.00293 9.74121 7.66113 9.59473C7.31934 9.44824 6.95312 9.375 6.5625 9.375C6.17188 9.375 5.80566 9.44824 5.46387 9.59473C5.12207 9.74121 4.82422 9.94141 4.57031 10.1953C4.31641 10.4492 4.11621 10.7471 3.96973 11.0889C3.82324 11.4307 3.75 11.7969 3.75 12.1875ZM26.4844 15.7471C27.0215 16.0303 27.5049 16.377 27.9346 16.7871C28.3643 17.1973 28.7354 17.6562 29.0479 18.1641C29.3604 18.6719 29.5947 19.209 29.751 19.7754C29.9072 20.3418 29.9902 20.9375 30 21.5625V22.5H28.125V21.5625C28.125 20.918 28.0029 20.3125 27.7588 19.7461C27.5146 19.1797 27.1777 18.6865 26.748 18.2666C26.3184 17.8467 25.8203 17.5098 25.2539 17.2559C24.6875 17.002 24.082 16.875 23.4375 16.875C22.793 16.875 22.1875 16.9971 21.6211 17.2412C21.0547 17.4854 20.5566 17.8223 20.127 18.252C19.6973 18.6816 19.3604 19.1797 19.1162 19.7461C18.8721 20.3125 18.75 20.918 18.75 21.5625V22.5H16.875V21.5625C16.875 20.9473 16.9531 20.3564 17.1094 19.79C17.2656 19.2236 17.5 18.6865 17.8125 18.1787C18.125 17.6709 18.4961 17.2119 18.9258 16.8018C19.3555 16.3916 19.8438 16.04 20.3906 15.7471C19.8633 15.2979 19.458 14.7656 19.1748 14.1504C18.8916 13.5352 18.75 12.8809 18.75 12.1875C18.75 11.543 18.8721 10.9375 19.1162 10.3711C19.3604 9.80469 19.6924 9.31152 20.1123 8.8916C20.5322 8.47168 21.0303 8.13477 21.6064 7.88086C22.1826 7.62695 22.793 7.5 23.4375 7.5C24.082 7.5 24.6875 7.62207 25.2539 7.86621C25.8203 8.11035 26.3135 8.44727 26.7334 8.87695C27.1533 9.30664 27.4902 9.80469 27.7441 10.3711C27.998 10.9375 28.125 11.543 28.125 12.1875C28.125 12.8711 27.9834 13.5205 27.7002 14.1357C27.417 14.751 27.0117 15.2881 26.4844 15.7471ZM20.625 12.1875C20.625 12.5781 20.6982 12.9443 20.8447 13.2861C20.9912 13.6279 21.1914 13.9258 21.4453 14.1797C21.6992 14.4336 21.9971 14.6338 22.3389 14.7803C22.6807 14.9268 23.0469 15 23.4375 15C23.8281 15 24.1943 14.9268 24.5361 14.7803C24.8779 14.6338 25.1758 14.4336 25.4297 14.1797C25.6836 13.9258 25.8838 13.6279 26.0303 13.2861C26.1768 12.9443 26.25 12.5781 26.25 12.1875C26.25 11.7969 26.1768 11.4307 26.0303 11.0889C25.8838 10.7471 25.6836 10.4492 25.4297 10.1953C25.1758 9.94141 24.8779 9.74121 24.5361 9.59473C24.1943 9.44824 23.8281 9.375 23.4375 9.375C23.0469 9.375 22.6807 9.44824 22.3389 9.59473C21.9971 9.74121 21.6992 9.94141 21.4453 10.1953C21.1914 10.4492 20.9912 10.7471 20.8447 11.0889C20.6982 11.4307 20.625 11.7969 20.625 12.1875ZM16.875 1.875C16.084 1.875 15.3076 1.95801 14.5459 2.12402C13.7842 2.29004 13.0469 2.5293 12.334 2.8418C11.6211 3.1543 10.9473 3.53516 10.3125 3.98438C9.67773 4.43359 9.0918 4.95605 8.55469 5.55176L7.16309 4.29199C7.78809 3.6084 8.47168 3.00293 9.21387 2.47559C9.95605 1.94824 10.7373 1.49902 11.5576 1.12793C12.3779 0.756836 13.2373 0.478516 14.1357 0.292969C15.0342 0.107422 15.9473 0.00976562 16.875 0C18.2129 0 19.5215 0.195313 20.8008 0.585938C22.0801 0.976562 23.2715 1.56738 24.375 2.3584V0H26.25V5.625H20.625V3.75H23.1006C22.1729 3.13477 21.1816 2.6709 20.127 2.3584C19.0723 2.0459 17.9883 1.88477 16.875 1.875ZM13.125 28.125C13.916 28.125 14.6924 28.042 15.4541 27.876C16.2158 27.71 16.9531 27.4707 17.666 27.1582C18.3789 26.8457 19.0527 26.4648 19.6875 26.0156C20.3223 25.5664 20.9082 25.0439 21.4453 24.4482L22.8369 25.708C22.2119 26.3916 21.5283 26.9971 20.7861 27.5244C20.0439 28.0518 19.2578 28.501 18.4277 28.8721C17.5977 29.2432 16.7383 29.5215 15.8496 29.707C14.9609 29.8926 14.0527 29.9902 13.125 30C11.7871 30 10.4785 29.8047 9.19922 29.4141C7.91992 29.0234 6.72852 28.4326 5.625 27.6416V30H3.75V24.375H9.375V26.25H6.89941C7.82715 26.8652 8.81836 27.3291 9.87305 27.6416C10.9277 27.9541 12.0117 28.1152 13.125 28.125Z" fill="#1F2937"/>
</svg>
