<svg width="41" height="50" viewBox="0 0 41 50" fill="none" xmlns="http://www.w3.org/2000/svg">
<path d="M20.5 49.169C14.8049 47.735 10.1029 44.467 6.39412 39.3652C2.68532 34.2633 0.831736 28.5993 0.833375 22.3732V7.37732L20.5 0.00231934L40.1667 7.37732V22.3732C40.1667 28.6009 38.3131 34.2658 34.606 39.3676C30.8988 44.4695 26.1968 47.7366 20.5 49.169ZM20.5 44.0065C24.7612 42.6544 28.2848 39.9502 31.0709 35.894C33.857 31.8377 35.25 27.3308 35.25 22.3732V10.7575L20.5 5.22628L5.75004 10.7575V22.3732C5.75004 27.3308 7.1431 31.8377 9.92921 35.894C12.7153 39.9502 16.2389 42.6544 20.5 44.0065Z" fill="#1F2937"/>
</svg>
