<svg width="51" height="50" viewBox="0 0 51 50" fill="none" xmlns="http://www.w3.org/2000/svg">
<path d="M3.375 24.5857C3.375 27.4912 3.94728 30.3682 5.05917 33.0526C6.17105 35.7369 7.80077 38.1759 9.85526 40.2304C11.9098 42.2849 14.3488 43.9146 17.0331 45.0265C19.7175 46.1384 22.5945 46.7107 25.5 46.7107C28.4055 46.7107 31.2825 46.1384 33.9669 45.0265C36.6512 43.9146 39.0902 42.2849 41.1447 40.2304C43.1992 38.1759 44.829 35.7369 45.9408 33.0526C47.0527 30.3682 47.625 27.4912 47.625 24.5857C47.625 18.7178 45.294 13.0902 41.1447 8.94096C36.9955 4.79171 31.3679 2.46069 25.5 2.46069C19.6321 2.46069 14.0045 4.79171 9.85526 8.94096C5.70602 13.0902 3.375 18.7178 3.375 24.5857Z" stroke="#1F2937" stroke-width="4.91667" stroke-linecap="round" stroke-linejoin="round"/>
<path d="M25.5 12.2941V24.5857L32.875 31.9607" stroke="#1F2937" stroke-width="4.91667" stroke-linecap="round" stroke-linejoin="round"/>
</svg>
