<svg width="49" height="45" viewBox="0 0 49 45" fill="none" xmlns="http://www.w3.org/2000/svg">
<path fill-rule="evenodd" clip-rule="evenodd" d="M0.375 10.6013C0.375 7.91186 1.44338 5.33255 3.34512 3.43081C5.24686 1.52908 7.82616 0.460693 10.5156 0.460693H21.5781C24.2676 0.460693 26.8469 1.52908 28.7486 3.43081C30.6504 5.33255 31.7188 7.91186 31.7188 10.6013V12.4451C31.7188 13.1786 31.4274 13.882 30.9087 14.4007C30.3901 14.9193 29.6866 15.2107 28.9531 15.2107C28.2196 15.2107 27.5162 14.9193 26.9975 14.4007C26.4789 13.882 26.1875 13.1786 26.1875 12.4451V10.6013C26.1875 8.05694 24.1225 5.99194 21.5781 5.99194H10.5156C7.97125 5.99194 5.90625 8.05694 5.90625 10.6013V34.5701C5.90625 37.1144 7.97125 39.1794 10.5156 39.1794H21.5781C24.1225 39.1794 26.1875 37.1144 26.1875 34.5701V32.7263C26.1875 31.9928 26.4789 31.2894 26.9975 30.7707C27.5162 30.2521 28.2196 29.9607 28.9531 29.9607C29.6866 29.9607 30.3901 30.2521 30.9087 30.7707C31.4274 31.2894 31.7188 31.9928 31.7188 32.7263V34.5701C31.7188 37.2595 30.6504 39.8388 28.7486 41.7406C26.8469 43.6423 24.2676 44.7107 21.5781 44.7107H10.5156C7.82616 44.7107 5.24686 43.6423 3.34512 41.7406C1.44338 39.8388 0.375 37.2595 0.375 34.5701V10.6013ZM35.2956 12.3344C35.8142 11.8165 36.5171 11.5256 37.25 11.5256C37.9829 11.5256 38.6858 11.8165 39.2044 12.3344L47.5012 20.6313C48.0192 21.1499 48.3101 21.8528 48.3101 22.5857C48.3101 23.3186 48.0192 24.0215 47.5012 24.5401L39.2044 32.8369C38.9512 33.1087 38.6459 33.3266 38.3066 33.4778C37.9674 33.6289 37.6011 33.7102 37.2298 33.7168C36.8585 33.7233 36.4896 33.655 36.1452 33.5159C35.8009 33.3768 35.488 33.1698 35.2254 32.9071C34.9628 32.6445 34.7558 32.3317 34.6167 31.9873C34.4776 31.643 34.4093 31.2741 34.4158 30.9028C34.4224 30.5314 34.5037 30.1652 34.6548 29.826C34.806 29.4867 35.0239 29.1814 35.2956 28.9282L38.8725 25.3513H12.3594C11.6259 25.3513 10.9224 25.0599 10.4038 24.5413C9.88513 24.0226 9.59375 23.3192 9.59375 22.5857C9.59375 21.8522 9.88513 21.1488 10.4038 20.6301C10.9224 20.1114 11.6259 19.8201 12.3594 19.8201H38.8725L35.2956 16.2432C34.7777 15.7246 34.4868 15.0217 34.4868 14.2888C34.4868 13.5559 34.7777 12.853 35.2956 12.3344Z" fill="#1F2937"/>
</svg>
